<?xml version="1.0" encoding="UTF-8" standalone="no"?>
<!-- Created with Inkscape (http://www.inkscape.org/) -->

<svg
   width="33.183201mm"
   height="33.218605mm"
   viewBox="0 0 33.183201 33.218605"
   version="1.1"
   id="svg5"
   xml:space="preserve"
   inkscape:version="1.2.2 (b0a8486541, 2022-12-01)"
   sodipodi:docname="nftables.svg"
   xmlns:inkscape="http://www.inkscape.org/namespaces/inkscape"
   xmlns:sodipodi="http://sodipodi.sourceforge.net/DTD/sodipodi-0.dtd"
   xmlns="http://www.w3.org/2000/svg"
   xmlns:svg="http://www.w3.org/2000/svg"><sodipodi:namedview
     id="namedview7"
     pagecolor="#505050"
     bordercolor="#ffffff"
     borderopacity="1"
     inkscape:showpageshadow="0"
     inkscape:pageopacity="0"
     inkscape:pagecheckerboard="1"
     inkscape:deskcolor="#505050"
     inkscape:document-units="mm"
     showgrid="false"
     inkscape:zoom="3.659624"
     inkscape:cx="53.69404"
     inkscape:cy="117.36178"
     inkscape:window-width="1496"
     inkscape:window-height="1288"
     inkscape:window-x="26"
     inkscape:window-y="23"
     inkscape:window-maximized="0"
     inkscape:current-layer="layer1" /><defs
     id="defs2"><inkscape:path-effect
       effect="fill_between_many"
       method="originald"
       linkedpaths="#path751,0,1|#path283,0,1"
       id="path-effect1719"
       is_visible="true"
       lpeversion="0"
       join="true"
       close="true"
       autoreverse="true" /></defs><g
     inkscape:label="Layer 1"
     inkscape:groupmode="layer"
     id="layer1"
     transform="translate(-14.454857,-72.059922)"><path
       inkscape:original-d="M 0,0"
       inkscape:path-effect="#path-effect1719"
       d="M 0,0"
       id="path1721"
       class="UnoptimicedTransforms" /><ellipse
       style="fill:#ff7800;fill-opacity:1;stroke-width:0.599725"
       id="path751"
       cx="31.095039"
       cy="88.851509"
       rx="12.237135"
       ry="15.191749"
       class="UnoptimicedTransforms" /><path
       style="fill:#204a87;fill-opacity:1;stroke-width:0.264583"
       d="M 28.775423,105.08544 C 16.769951,103.20431 10.53347,89.545303 17.137394,79.596067 c 7.182098,-10.82028 23.132874,-9.80009 28.85991,1.84585 5.739969,11.672236 -4.438843,25.646483 -17.221881,23.643523 z m 6.094186,-4.99483 c 6.278822,-2.824167 8.281019,-11.239647 3.869518,-16.264077 -0.939686,-1.07024 -1.349999,-1.23473 -1.28986,-0.51709 0.103458,1.23452 -0.101261,1.9985 -0.694473,2.59171 -0.856559,0.85657 -1.602081,0.81988 -2.547308,-0.12535 -0.77042,-0.77042 -0.774609,-0.79174 -0.743198,-3.783346 0.03701,-3.52479 -0.49338,-5.18358 -2.112742,-6.60757 l -0.958777,-0.84311 -0.137716,1.18119 c -0.110187,0.94507 -0.366088,1.40956 -1.280193,2.32366 -2.068356,2.06836 -2.574343,4.13628 -1.757091,7.181046 0.747038,2.78318 0.0754,4.0727 -2.040497,3.91767 -1.432088,-0.10493 -2.160299,-1.20909 -2.179775,-3.30511 -0.01521,-1.63699 -0.219145,-1.65488 -1.391533,-0.12208 -3.497711,4.57294 -0.29549,12.79539 5.735842,14.728107 1.819464,0.58304 5.865881,0.39187 7.527803,-0.35565 z m -6.624222,-2.933697 c -1.645248,-0.74714 -2.482827,-2.0073 -2.482827,-3.73549 v -1.41359 l 0.742082,0.71096 c 0.796316,0.76292 2.264138,0.96151 3.241324,0.43854 1.314602,-0.70356 1.71846,-3.44252 0.779095,-5.28383 -0.626352,-1.22775 -0.677895,-2.34806 -0.140707,-3.05828 0.383701,-0.5073 0.388564,-0.50717 0.396875,0.0104 0.0046,0.28817 0.439542,1.22243 0.966475,2.07613 0.618264,1.00166 1.01947,2.03575 1.131205,2.91563 l 0.173145,1.36345 0.505281,-0.75592 c 0.473045,-0.70774 0.527477,-0.72561 0.85317,-0.2802 1.31051,1.79223 -0.986101,4.86161 -3.652091,4.88096 -1.076909,0.008 -1.122855,0.0361 -0.645805,0.39687 1.096862,0.82963 4.13441,0.14993 5.637972,-1.26158 0.690777,-0.64848 0.752196,-0.47914 0.207941,0.57333 -1.282669,2.48041 -5.008743,3.65073 -7.713135,2.42262 z"
       id="path283"
       sodipodi:nodetypes="ssssssssssscsssssssssscsssssssccsccsss"
       class="UnoptimicedTransforms" /></g></svg>
