<?xml version="1.0" encoding="UTF-8" standalone="no"?>
<svg
   width="114.20003"
   height="152.74699"
   version="1.1"
   xml:space="preserve"
   style="clip-rule:evenodd;fill-rule:evenodd;stroke-linejoin:round;stroke-miterlimit:1.41421"
   id="svg173"
   sodipodi:docname="Unbound_FC_Shaded_cropped.svg"
   inkscape:version="1.2.2 (b0a8486541, 2022-12-01)"
   xmlns:inkscape="http://www.inkscape.org/namespaces/inkscape"
   xmlns:sodipodi="http://sodipodi.sourceforge.net/DTD/sodipodi-0.dtd"
   xmlns="http://www.w3.org/2000/svg"
   xmlns:svg="http://www.w3.org/2000/svg"><sodipodi:namedview
     id="namedview175"
     pagecolor="#505050"
     bordercolor="#ffffff"
     borderopacity="1"
     inkscape:showpageshadow="0"
     inkscape:pageopacity="0"
     inkscape:pagecheckerboard="1"
     inkscape:deskcolor="#505050"
     showgrid="false"
     inkscape:zoom="1.9491779"
     inkscape:cx="334.75652"
     inkscape:cy="77.725077"
     inkscape:window-width="2289"
     inkscape:window-height="1250"
     inkscape:window-x="26"
     inkscape:window-y="23"
     inkscape:window-maximized="0"
     inkscape:current-layer="g142" /><g
     id="g142"
     transform="translate(1.23648e-5,5e-4)"><g
       id="g124"><path
         d="m 87.5,6.548 v 86.4 l -29.5,17 c -0.597,0.299 -1.303,0.299 -1.9,0 l -29.5,-17 v -86.4 l -20.9,12.1 c -3.528,2.042 -5.706,5.824 -5.7,9.9 v 86.4 c 0.021,4.07 2.191,7.839 5.7,9.9 l 45.7,26.4 c 3.533,1.998 7.867,1.998 11.4,0 l 45.7,-26.4 c 3.528,-2.042 5.706,-5.824 5.7,-9.9 v -86.4 c -0.021,-4.07 -2.191,-7.839 -5.7,-9.9 z"
         style="fill:#2d2e83;fill-rule:nonzero"
         id="path116" /><path
         d="m 87.5,6.548 v 86.4 l -29.5,17 c -0.597,0.299 -1.303,0.299 -1.9,0 l -29.5,-17 v -86.4 l -20.9,12.1 c -3.528,2.042 -5.706,5.824 -5.7,9.9 v 86.4 c 0.021,4.07 2.191,7.839 5.7,9.9 l 45.7,26.4 c 3.533,1.998 7.867,1.998 11.4,0 l 45.7,-26.4 c 3.528,-2.042 5.706,-5.824 5.7,-9.9 v -86.4 c -0.021,-4.07 -2.191,-7.839 -5.7,-9.9 z"
         style="fill:url(#_Linear1);fill-rule:nonzero"
         id="path118" /><path
         d="m 114.2,28.548 c -0.021,-4.07 -2.191,-7.839 -5.7,-9.9 L 78.1,1.048 c -2.337,-1.398 -5.263,-1.398 -7.6,0 -2.354,1.359 -3.807,3.882 -3.8,6.6 v 66.6 c 0.021,4.07 2.191,7.839 5.7,9.9 l 36.1,20.9 c 3.528,2.042 5.706,5.824 5.7,9.9 z"
         style="fill:#1fc2d7;fill-rule:nonzero"
         id="path120" /><path
         d="m 0,28.548 c 0.021,-4.07 2.191,-7.839 5.7,-9.9 l 30.5,-17.6 c 2.337,-1.398 5.263,-1.398 7.6,0 2.354,1.359 3.807,3.882 3.8,6.6 v 66.6 c -0.021,4.07 -2.191,7.839 -5.7,9.9 l -36.1,20.9 c -3.528,2.042 -5.706,5.824 -5.7,9.9 z"
         style="fill:#1fc2d7;fill-rule:nonzero"
         id="path122" /></g></g><defs
     id="defs171"><linearGradient
       id="_Linear1"
       x1="0"
       y1="0"
       x2="1"
       y2="0"
       gradientUnits="userSpaceOnUse"
       gradientTransform="matrix(114.2,0,0,114.2,1.23648e-5,79.6485)"><stop
         offset="0"
         style="stop-color:#0d0d27;stop-opacity:1"
         id="stop144" /><stop
         offset="0.02"
         style="stop-color:#10102f;stop-opacity:1"
         id="stop146" /><stop
         offset="0.1"
         style="stop-color:#1a1b4d;stop-opacity:1"
         id="stop148" /><stop
         offset="0.19"
         style="stop-color:#232365;stop-opacity:1"
         id="stop150" /><stop
         offset="0.28"
         style="stop-color:#282976;stop-opacity:1"
         id="stop152" /><stop
         offset="0.38"
         style="stop-color:#2c2d80;stop-opacity:1"
         id="stop154" /><stop
         offset="0.5"
         style="stop-color:#2d2e83;stop-opacity:1"
         id="stop156" /><stop
         offset="0.62"
         style="stop-color:#2c2d80;stop-opacity:1"
         id="stop158" /><stop
         offset="0.72"
         style="stop-color:#282976;stop-opacity:1"
         id="stop160" /><stop
         offset="0.81"
         style="stop-color:#232365;stop-opacity:1"
         id="stop162" /><stop
         offset="0.9"
         style="stop-color:#1a1b4d;stop-opacity:1"
         id="stop164" /><stop
         offset="0.98"
         style="stop-color:#10102f;stop-opacity:1"
         id="stop166" /><stop
         offset="1"
         style="stop-color:#0d0d27;stop-opacity:1"
         id="stop168" /></linearGradient></defs></svg>
